<svg xmlns="http://www.w3.org/2000/svg" viewBox="0 0 512 512"><path fill="#3A43C2" d="M448.6 334.5c-.5 0-1-.1-1.5-.2-2.3-.8-3.6-3.2-3-5.6.7-4.7.6-51 .5-81.9-1.8-.4-3.8-1.1-5.7-2.3-11.9-6.5-26-23.2-32.3-31.2-4.1 4-10.9 10.6-17.9 17.1-21.6 19.9-26.5 21.9-30.5 18-2.5-2.5-3.7-8.7-4.3-15.6-3.6 3.9-8.3 8.2-13.8 11.7-13.3 8.5-34.1 10.9-35 11-2.6.3-4.9-1.6-5.1-4.1-.3-2.6 1.6-4.9 4.1-5.1.2 0 19.6-2.3 31-9.6 11.5-7.3 19-19 19.1-19.1 1.1-1.7 3.2-2.5 5.2-2 2 .6 3.4 2.4 3.4 4.5 0 7.3.6 14.9 1.4 19.1 7.4-5.2 25-21.4 39.6-36.1 1-1 2.3-1.4 3.6-1.4 1.4.1 2.6.8 3.4 1.9.2.3 18.9 25.5 32.6 32.8.1.1.3.1.4.2 1.8 1.2 4.5 1.5 5.4 1.5 2.5 0 4.6 2.1 4.6 4.6.4 56.1.1 85.9-.8 88.6-.6 1.9-2.4 3.2-4.4 3.2zm-4.4-6.2c0 .1-.1.2-.1.3 0-.1.1-.2.1-.3zM370.8 396c-46.9 0-85-38.1-85-85v-42.1c0-2.6 2.1-4.7 4.7-4.7s4.7 2.1 4.7 4.7V311c0 41.7 33.9 75.6 75.6 75.6 2.6 0 4.7 2.1 4.7 4.7-.1 2.6-2.2 4.7-4.7 4.7z"/><path fill="#3A43C2" d="M287 373.2c-28.4 0-29.1-17-29.2-17.7v-82.9l1.1-59.8c0-20.2 7.7-41.5 21.1-58.3 14.5-18.1 33.2-28.1 52.8-28.1h72.3c41.4 0 75 33.7 75 75v62c0 2.6-2.1 4.7-4.7 4.7s-4.7-2.1-4.7-4.7v-62c0-36.2-29.5-65.7-65.7-65.7h-72.3c-36.4 0-64.6 41.4-64.6 77.1l-1.1 59.8v82.5c.1.9 1.6 8.7 19.8 8.7 2.6 0 4.7 2.1 4.7 4.7.2 2.6-1.9 4.7-4.5 4.7z"/><path fill="#3A43C2" d="M488.9 334.5H450c-2.6 0-4.7-2.1-4.7-4.7v-67.2c0-1.3.5-2.5 1.4-3.3s2.1-1.4 3.4-1.3l38.9 1.1c8.1 0 14.6 6.6 14.6 14.7v46c0 8.1-6.6 14.7-14.7 14.7zm-34.3-9.4h34.3c3 0 5.4-2.4 5.4-5.4v-46c0-3-2.4-5.4-5.4-5.4h-.1l-34.1-1v57.8z"/><path fill="#3A43C2" d="M443.1 368.6h-63.7c-2.6 0-4.7-2.1-4.7-4.7s2.1-4.7 4.7-4.7h63.7c15.7 0 28.4-12.7 28.4-28.4 0-2.6 2.1-4.7 4.7-4.7s4.7 2.1 4.7 4.7c-.1 20.9-17 37.8-37.8 37.8z"/><path fill="#DCEAF7" d="M241.8 468.7c-7.7 3.6-7.7 5.1-22.4 7.2-58.2 8.1-108.2-95.1-108.2-210.2S158.9 59 217.7 59c29.4 0 56 22.9 75.3 60.1 3.4 6.6 6.6 13.6 9.5 21.1"/><path fill="#3A43C2" d="M213.1 481.6c-14.1 0-28.3-5.9-41.3-17.2-39.4-34.4-65.9-114.2-65.9-198.7 0-56.4 11.3-109.3 31.8-148.9 21-40.6 49.4-63 80-63s59 22.4 80 63c3.5 6.7 6.8 14 9.7 21.6 1.1 2.7-.3 5.8-3 6.9-2.7 1.1-5.8-.3-6.9-3-2.8-7.2-6-14.2-9.3-20.6-19.1-36.9-44.1-57.3-70.5-57.3-55.8 0-101.1 90.3-101.1 201.3 0 80.3 25.6 158.8 62.3 190.7 13 11.3 26.4 16.1 39.9 14.2 10.6-1.5 12.6-2.5 16.5-4.5 1.2-.6 2.6-1.3 4.3-2.2 2.7-1.2 5.8-.1 7.1 2.6 1.2 2.7.1 5.8-2.6 7.1-1.6.7-2.8 1.4-3.9 2-5 2.6-8.1 4-20 5.6-2.4.3-4.7.4-7.1.4z"/><path fill="#3A43C2" d="M242.5 472.6c-2.6 0-4.7-2.1-4.7-4.7.1-12.6 5-24.3 13.8-32.8 8.7-8.4 20.3-13.1 32.8-13.1H294.5c20.9 0 37.9-17 37.9-37.9 0-2.6 2.1-4.7 4.7-4.7s4.7 2.1 4.7 4.7c0 26-21.2 47.2-47.2 47.2H284.5c-10.1 0-19.4 3.7-26.4 10.5s-10.9 16.1-11 26.2c0 2.5-2.1 4.6-4.6 4.6zM501.2 474.8c-1.9 0-3.7-1.2-4.4-3.1-6.6-19-18.7-41.5-38.8-41.5h-10.1c-28.4 0-46.1-15-46.1-39.2 0-2.6 2.1-4.7 4.7-4.7s4.7 2.1 4.7 4.7c0 27 25.7 29.9 36.8 29.9h10c20.2 0 36.7 16.5 47.6 47.8.8 2.4-.4 5.1-2.9 5.9-.5.1-1 .2-1.5.2z"/><path fill="#3A43C2" d="M219.4 480.5c-117.4 0-213-95.6-213-213C6.4 150 102 54.4 219.4 54.4c58.7 0 118.3 26.7 159.2 71.4 1.7 1.9 1.6 4.8-.3 6.6-1.9 1.7-4.8 1.6-6.6-.3-39.2-42.8-96.2-68.4-152.3-68.4-112.3 0-203.8 91.4-203.8 203.8 0 112.3 91.4 203.8 203.8 203.8 8.5 0 11.4-1.7 15.9-4.2 1.3-.7 2.7-1.6 4.4-2.4 2.3-1.2 5.1-.2 6.3 2.1 1.2 2.3.2 5.1-2.1 6.3-1.4.7-2.7 1.4-3.9 2.2-4.9 2.6-9.6 5.2-20.6 5.2z"/><path fill="#3A43C2" d="M219.4 480.5c-2.6 0-4.7-2.1-4.7-4.7V59c0-2.6 2.1-4.7 4.7-4.7s4.7 2.1 4.7 4.7v416.8c0 2.6-2.1 4.7-4.7 4.7z"/><path fill="#3A43C2" d="M221.8 208.6c-61 0-129.2-27.1-165.8-65.9-1.8-1.9-1.7-4.8.2-6.6 1.9-1.8 4.8-1.7 6.6.2 34.4 36.5 101.3 62.9 159 62.9 13.5 0 27-1.1 40.1-3.2 2.5-.4 4.9 1.3 5.3 3.9.4 2.5-1.3 4.9-3.9 5.3-13.6 2.3-27.6 3.4-41.5 3.4zM95.1 437.6c-1.4 0-2.8-.6-3.7-1.8-1.6-2-1.2-5 .8-6.5 36.3-28.4 79.2-42.1 131.2-42.1 34.6 0 68.9 8 99.2 23.1 2.3 1.2 3.2 4 2.1 6.3-1.2 2.3-3.9 3.2-6.3 2.1-29-14.5-61.8-22.2-95-22.2-49.8 0-90.8 13.1-125.4 40.2-.9.6-1.9.9-2.9.9zM262.4 296.1H13.7c-2.6 0-4.7-2.1-4.7-4.7s2.1-4.7 4.7-4.7h248.7c2.6 0 4.7 2.1 4.7 4.7-.1 2.7-2.2 4.7-4.7 4.7z"/></svg>