<svg xmlns="http://www.w3.org/2000/svg" viewBox="0 0 512 512"><path fill="#DCEAF7" d="M231.8 256H25.2c-4.5 0-8.2-3.7-8.2-8.2V116.1c0-4.5 3.7-8.2 8.2-8.2h206.5c4.5 0 8.2 3.7 8.2 8.2v131.7c0 4.5-3.6 8.2-8.1 8.2z"/><path fill="#3A43C2" d="M226.9 262.3H30c-10.7 0-19.4-8.7-19.4-19.4v-122c0-10.7 8.7-19.4 19.4-19.4h196.9c10.7 0 19.4 8.7 19.4 19.4V243c0 10.7-8.7 19.3-19.4 19.3zM30 114.3c-3.7 0-6.6 3-6.6 6.6V243c0 3.7 3 6.6 6.6 6.6h196.9c3.7 0 6.6-3 6.6-6.6V120.9c0-3.7-3-6.6-6.6-6.6H30z"/><path fill="#3A43C2" d="M128.3 190.9c-3.6 0-7.3-1.1-10.4-3.2L16.3 118c-2.5-1.7-3.2-5.2-1.4-7.7 1.7-2.5 5.2-3.2 7.7-1.4l101.5 69.6c2.6 1.7 6 1.7 8.5-.1l95.5-69.4c2.5-1.8 6-1.3 7.8 1.2 1.8 2.5 1.3 6-1.2 7.8l-95.5 69.4c-3.3 2.3-7.1 3.5-10.9 3.5zM261.3 443.4c-34.9 0-65.9-25.5-71.6-61-.7-4.4-1-8.8-.9-13 .1-8.3 1.7-16.5 4.7-24.3 1.5-4 4.9-6.9 9-7.9l96.8-22.4c4.1-.9 8.4.2 11.5 3.1 6.3 5.9 11.5 12.8 15.4 20.6.2.4.5.5.8.6.2.1.7.2 1.2-.2 45.5-27.3 78.4-72.6 90.1-124.4.1-.6-.1-1-.2-1.2-.2-.2-.4-.5-.9-.5-10.6-1.3-20.9-5.1-30-10.8-4-2.6-6.2-7.1-5.8-11.7l9.3-105.7c.4-4.7 3.4-8.8 7.8-10.6 1.7-.7 3.4-1.3 5.1-1.9 3.4-1.2 7.2-2.1 11.2-2.7 19.1-3.1 38.3 1.5 54 12.8 15.7 11.3 26 28.1 29.1 47.2 11.5 71.3-5.2 142.9-47.1 201.7C409 390 346.9 429.3 276 441.9h-.2-.1c-1 .2-2 .4-3 .5h-.7c-3.5.8-7.2 1-10.7 1zm40.8-117.6h-.3L205 348.1c-.5.1-.9.5-1.1 1-2.5 6.6-3.9 13.5-4 20.6-.1 3.6.1 7.2.7 11 5.3 33.1 36.5 55.9 69.6 50.9.3 0 .5-.1.8-.1.8-.1 1.7-.3 2.5-.5.1 0 .2 0 .3-.1.1 0 .2 0 .3-.1 68-12.1 127.4-49.8 167.5-106.1 40.1-56.4 56.1-125.1 45.1-193.5-2.6-16.2-11.3-30.4-24.6-40-13.3-9.6-29.5-13.4-45.7-10.8-3.4.6-6.6 1.3-9.5 2.3-1.5.5-3 1-4.4 1.6-.5.2-.9.7-.9 1.2l-9.3 105.7c0 .5.2 1.1.7 1.4 7.6 4.9 16.4 8.1 25.3 9.2 3.5.4 6.6 2.3 8.6 5.2 2 2.9 2.8 6.6 2 10.1-12.4 54.7-47.1 102.7-95.3 131.5-3 1.8-6.7 2.3-10.1 1.3-3.3-1-6.1-3.3-7.6-6.3-3.3-6.6-7.6-12.4-13-17.4 0-.3-.4-.4-.8-.4z"/><path fill="#3A43C2" d="M347.4 154.9h-75.1c-3.1 0-5.6-2.5-5.6-5.6s2.5-5.6 5.6-5.6h75.1c3.1 0 5.6 2.5 5.6 5.6s-2.6 5.6-5.6 5.6zM331.9 182h-59.6c-3.1 0-5.6-2.5-5.6-5.6 0-3.1 2.5-5.6 5.6-5.6h59.6c3.1 0 5.6 2.5 5.6 5.6 0 3.1-2.5 5.6-5.6 5.6zM307.6 209.1h-35.3c-3.1 0-5.6-2.5-5.6-5.6 0-3.1 2.5-5.6 5.6-5.6h35.3c3.1 0 5.6 2.5 5.6 5.6-.1 3.1-2.6 5.6-5.6 5.6z"/></svg>