<svg data-name="Layer 1" xmlns="http://www.w3.org/2000/svg" viewBox="0 0 512 512"><path d="M463.51 139.58a4.4 4.4 0 0 0-5.54-3.9l-94.28 25.56a4.38 4.38 0 0 0-2.88 6l11.43 26.23-55.87-19.54c-3-1.32-32.44-14-51-2.05a214.66 214.66 0 0 0-22.42 15.89l-80.63-1.14 5.68-27.88a4.4 4.4 0 0 0-4.07-5.27l-97.58-5.28a4.4 4.4 0 0 0-4.6 5l20.38 153.23a4.39 4.39 0 0 0 4.35 3.82 4.1 4.1 0 0 0 .5 0l48.2-5.45a4.39 4.39 0 0 0 3.82-3.49l.83-4.08c10.53 8.57 38.59 31.74 72 62 31.59 28.61 59.78 36.91 75.57 36.91 5.83 0 10-1.13 12-2.79a5.37 5.37 0 0 0 1.89-3.61c9.53 4.26 16.76 5.22 22.62 3 5-1.85 8.74-5.91 11.53-12.41a10.53 10.53 0 0 0 .19-7.38 35.75 35.75 0 0 0 4.55 2.41c9.48 4.06 16.64 2.11 21-.25 7.42-4 11.23-11.66 11.9-15.53.24-1.4.47-2.76-2.88-7.44 5.68 3.84 7.37 4 8.54 4.12a4.5 4.5 0 0 0 3.23-.93 29.85 29.85 0 0 0 12.63-32.64 40.32 40.32 0 0 0-1.73-5l20.71-29.61 5.44 12.48a4.4 4.4 0 0 0 4 2.64 3.1 3.1 0 0 0 .43 0l48.27-4.76a4.39 4.39 0 0 0 4-4.72ZM90.28 301l-19.1-143.72 87.15 4.72L131 296.39Zm288.16 46c-5.23-2.7-19.44-14.16-35.52-28.06l-25.12-25.13a3.75 3.75 0 0 0-5.3 0l-1.44 1.44a3.74 3.74 0 0 0 0 5.3l.51.51a4.36 4.36 0 0 0 1.3 2.95c23 22.67 47.83 48.76 51.23 54.91a16.71 16.71 0 0 1-7.21 8.45c-3.81 2.07-8.28 2-13.29-.11-3.59-1.54-8.29-4.92-13.42-9.25l-17.06-17.07c-10.41-11.49-20.74-21.3-20.85-21.4a4.27 4.27 0 0 0-1.48-.92l-3-2.95a3.72 3.72 0 0 0-5.29 0l-1.45 1.44a3.75 3.75 0 0 0 0 5.3L304.68 346c2.34 2.39 4.78 4.84 7.27 7.27l1.83 1.82c14.38 17.22 13.54 21.63 13.51 21.77-1.81 4.23-3.87 6.65-6.51 7.63-3.82 1.43-9.9.15-18.06-3.81a71.69 71.69 0 0 1-10.33-6.26c-3.36-3.92-8-8.92-14.33-15.39-11-11.18-22.13-21.59-22.24-21.7a4.38 4.38 0 0 0-2.69-1.15 3.73 3.73 0 0 0-4.58.54l-1.45 1.45a3.75 3.75 0 0 0 0 5.3l14.26 14.26A201.17 201.17 0 0 0 276.69 373l13.25 13.25a3.63 3.63 0 0 0 1.3.84c-8.65 1.15-36.66-1.09-73.52-34.47-38.56-34.93-70.12-60.52-75.91-65.18l18.71-92.07 73 1a121.16 121.16 0 0 0-21.05 29.5c-1.62 2.92-9 17.09-6 25.91a10 10 0 0 0 5.73 6.13c11.57 4.82 36.48-3.14 50-10.75a275.3 275.3 0 0 1 25.1-12.14c65.58 51.34 93.61 78.41 96.44 84.1A32.6 32.6 0 0 1 386 325a21 21 0 0 1-7.56 22Zm9.21-37.31c-18.69-21.79-88.27-76.37-96.9-83.11a4.4 4.4 0 0 0-4.36-.61 282.24 282.24 0 0 0-28.45 13.6c-15.79 8.88-36.05 12.9-42.29 10.3a1.29 1.29 0 0 1-.8-.9c-1.32-3.81 2.43-13.48 5.38-18.81a.75.75 0 0 0 .07-.12 111.57 111.57 0 0 1 26.4-33.86 4.46 4.46 0 0 0 1.8-1.53 203.1 203.1 0 0 1 21.61-15.35c15.11-9.7 42.52 2.61 42.79 2.73l.38.16 61.94 21.66a4.29 4.29 0 0 0 1.65.23l32.51 74.56Zm38.08-15.57L370.92 168.4l84.23-22.84 11.37 144.53Z" style="fill:#fff"/></svg>