<svg xmlns="http://www.w3.org/2000/svg" id="Layer_2" viewBox="0 0 2490.24 1238.02"><defs><style>.cls-1{fill:#fff}</style></defs><g id="Layer_1-2"><path d="M1342.14 4.21c-8.15 1.26-15.98 31.25-31.72 46.88-11.51 11.28-25.89 10.57-33.52 24.52-2.9 5.21-1.96 14.1-5.25 22.64-6.42 17.08-29.06 18.6-29.06 37.21-.08 20.09 18.88 23.93 35.29 38.18 12.81 11.48 14.06 19.39 29.57 24.95 13.24 4.51 32.94-10.22 50.68-4.93 14.57 4.35 28.51 7.48 31.8 22.44 2.9 13.79-.2 35.17-17.86 32.7-5.95-.67-31.76-9.36-63.49-5.99-38.27 4.35-81.94 16.84-86.2 59.49-2.35 23.85 27.14 51.97 55.61 46.25 19.7-3.88 10.38-27.1 21.11-38.38 14.06-14.45 93.72 50.44 167.78 50.44 31.18 0 54.36-7.87 77.39-32 2.15-1.84 4.78-5.8 8.1-6.03 3.13.24 8.62 3.33 10.42 4.66 59.65 47.94 104.73 144.09 323.93 145.22 30.82.15 65.95 14.88 94.62 41.04 25.58 23.66 40.54 60.43 55.07 97.75 21.93 56.01 61.26 110.49 120.86 171.11 3.25 3.25 52.32 41.4 56.24 44.26.63.39 4.23 9.01 2.98 13.82-1.45 36.35-6.74 142.05 72.06 146.83 19.27.98 14.22-12.57 14.22-21.89-.04-18.41-3.41-36.7 6.31-55.54 13.27-25.92-28.16-37.87-26.95-93.92.86-41.79-34.23-34.66-52.05-66.5-10.26-18.45-19.39-28.24-18.72-50.8 3.99-126.97-27.02-210.39-42.49-230.87-12.06-15.47-22.05-21.62-11.01-28.79 65.76-43.43 80.68-83.85 80.68-83.85 34.97-82.21 66.42-157.29 109.78-190.34 8.73-6.82 31.14-23.54 44.88-30.12 40.46-19.07 61.76-30.63 73.51-42.06 18.6-18.13 33.29-55.93 15.47-78.84-22.17-28.28-60.51-5.84-77.43 4.19-120.9 71.75-138.72 198.33-180.59 271.02-33.41 58.08-87.73 100.73-136.29 104.22-36.42 2.7-75.67-4.66-114.75-21.81-95.05-41.67-147.07-95.48-159.32-105-25.54-19.7-223.79-214.31-384.4-222.26 0 0-19.93-39.91-24.95-40.57-11.75-1.49-23.77 23.85-32.39 26.79-8.11 2.7-21.74-27.46-29.92-26.12M635.06 1165.72c-15.12-.35-27.96-12.77-27.96-28.12l.04-501H442.02v552.26c0 27.06 21.93 49.15 48.84 49.15h288.61c27.1 0 48.76-22.09 48.76-49.15V636.6H663.27l-.16 501c0 15.35-12.85 27.77-28.04 28.12m552.85-529.12H938.01c-29.57 0-53.65 24.05-53.65 53.93v547.48h165.27v-502.2c.12-15.39 12.57-27.57 27.93-27.57s27.81 11.91 28.16 27.14v502.64h164.61V735.38c.2-15.23 12.57-27.14 27.96-27.14s27.89 12.18 28.01 27.57v502.21h165.27V690.53c0-29.88-24.13-53.93-53.69-53.93h-249.95ZM221.06 736.86c.12-16.72-13.51-28.63-27.96-28.63h-28.04v304.19h28.04c14.57 0 28.08-11.59 27.96-28.24V736.85Zm110.8 350.01H165.04v151.14H0V636.6h332.9c29.8 0 53.06 24.2 53.06 54.17v341.95c0 30-24.16 54.16-54.12 54.16" class="cls-1"/><path d="M1768.64 1012.54V735.61c-.39-15.32-12.73-27.06-28.12-27.06s-27.85 12.22-27.96 27.49v276.5h56.08Zm0 225.47v-150.98h-56.08v150.98H1547.6V690.53c0-29.88 24.08-53.93 53.65-53.93h278.69c29.65 0 53.74 24.05 53.74 53.93v547.48h-165.04Z" class="cls-1"/></g></svg>