<svg xmlns="http://www.w3.org/2000/svg" viewBox="0 0 44.39 34.02"><g data-name="Layer 2"><path d="M19.18 4c-1.58 1-3.05 2.05-4.41 3.05a23.55 23.55 0 0 0-3.52 3.12 13.17 13.17 0 0 0-2.34 3.52A10.63 10.63 0 0 0 8.06 18a7.75 7.75 0 0 0 .14 1.45c.09.48.2 1 .34 1.53a5.34 5.34 0 0 1 1.56-.75 7.51 7.51 0 0 1 2.51-.4 5.25 5.25 0 0 1 4.43 2 7.49 7.49 0 0 1 1.53 4.75 6.93 6.93 0 0 1-.57 2.9 7.5 7.5 0 0 1-1.69 2.37 8.09 8.09 0 0 1-2.48 1.59 7.69 7.69 0 0 1-3 .58A10.14 10.14 0 0 1 6 32.94a10.68 10.68 0 0 1-3.35-2.75 11.53 11.53 0 0 1-2-3.69A13 13 0 0 1 0 22.57a23.29 23.29 0 0 1 1.29-8.14 20.37 20.37 0 0 1 3.52-6.09A24.89 24.89 0 0 1 10 3.73c1.9-1.31 4-2.56 6.13-3.73Zm25.21 0c-1.58 1-3 2.05-4.41 3.05a23.55 23.55 0 0 0-3.52 3.12 13.17 13.17 0 0 0-2.34 3.52 10.63 10.63 0 0 0-.84 4.31 7.74 7.74 0 0 0 .13 1.45c.09.48.2 1 .34 1.53a5.34 5.34 0 0 1 1.56-.75 7.51 7.51 0 0 1 2.51-.4 5.29 5.29 0 0 1 4.44 2 7.54 7.54 0 0 1 1.52 4.75 6.93 6.93 0 0 1-.61 2.91 7.5 7.5 0 0 1-1.69 2.37A8.09 8.09 0 0 1 39 33.44a7.65 7.65 0 0 1-3 .56 10.14 10.14 0 0 1-4.82-1.08 10.68 10.68 0 0 1-3.35-2.75 11.53 11.53 0 0 1-2-3.69 13 13 0 0 1-.64-3.93 23.29 23.29 0 0 1 1.29-8.14A20.37 20.37 0 0 1 30 8.34a24.89 24.89 0 0 1 5.15-4.61A74.2 74.2 0 0 1 41.32 0Z" fill="#fff" data-name="Layer 1"/></g></svg>