<svg xmlns="http://www.w3.org/2000/svg" viewBox="0 0 42.71 31.66"><g data-name="Layer 2"><path d="M17.58 4.94q-8.44 4.13-8.45 9.69a9.3 9.3 0 016 2.91 8.31 8.31 0 012.33 5.81 8.22 8.22 0 01-2.3 5.9 7.57 7.57 0 01-5.73 2.41 8.56 8.56 0 01-6.63-3.13A11 11 0 010 20.94Q0 7.56 14.9 0zm25.13 0q-8.37 4.13-8.38 9.69a9.24 9.24 0 015.91 2.91 8.27 8.27 0 012.34 5.81 8.28 8.28 0 01-2.27 5.9 7.48 7.48 0 01-5.7 2.41A8.67 8.67 0 0128 28.53a10.91 10.91 0 01-2.82-7.59q0-13.38 15-20.94z" fill="#da2e21" data-name="Layer 1"/></g></svg>